<svg xmlns="http://www.w3.org/2000/svg" width="559.301" height="690" viewBox="0 0 559.301 690">
  <defs>
    <style>
      .cls-1, .cls-2 {
        fill: #fff;
      }

      .cls-2 {
        stroke: #418d87;
        stroke-width: 5px;
        font-size: 500px;
        font-family: OpenSans, Open Sans;
      }
    </style>
  </defs>
  <g id="ErgebnisUnbekannt" transform="translate(-681.049 -316)">
    <g id="Gruppe_95" data-name="Gruppe 95" transform="translate(1161.079 550.718)">
      <rect id="Rechteck_96" data-name="Rechteck 96" class="cls-1" width="31.929" height="148.633" rx="6" transform="translate(0 234.51)"/>
      <g id="Gruppe_91" data-name="Gruppe 91" transform="translate(0 0)">
        <ellipse id="Ellipse_75" data-name="Ellipse 75" class="cls-1" cx="35.782" cy="35.782" rx="35.782" ry="35.782" transform="translate(4.404 0)"/>
        <rect id="Rechteck_94" data-name="Rechteck 94" class="cls-1" width="79.271" height="131.017" rx="7" transform="translate(0 93.584)"/>
        <rect id="Rechteck_95" data-name="Rechteck 95" class="cls-1" width="31.929" height="149.734" rx="7" transform="translate(47.342 234.51)"/>
      </g>
    </g>
    <g id="Gruppe_771" data-name="Gruppe 771" transform="translate(1041.071 550.718)">
      <rect id="Rechteck_96-2" data-name="Rechteck 96" class="cls-1" width="31.929" height="148.633" rx="6" transform="translate(0 234.51)"/>
      <g id="Gruppe_91-2" data-name="Gruppe 91" transform="translate(0 0)">
        <ellipse id="Ellipse_75-2" data-name="Ellipse 75" class="cls-1" cx="35.782" cy="35.782" rx="35.782" ry="35.782" transform="translate(4.404 0)"/>
        <rect id="Rechteck_94-2" data-name="Rechteck 94" class="cls-1" width="79.271" height="131.017" rx="7" transform="translate(0 93.584)"/>
        <rect id="Rechteck_95-2" data-name="Rechteck 95" class="cls-1" width="31.929" height="149.734" rx="7" transform="translate(47.342 234.51)"/>
      </g>
    </g>
    <g id="Gruppe_772" data-name="Gruppe 772" transform="translate(921.064 550.718)">
      <rect id="Rechteck_96-3" data-name="Rechteck 96" class="cls-1" width="31.929" height="148.633" rx="6" transform="translate(0 234.51)"/>
      <g id="Gruppe_91-3" data-name="Gruppe 91" transform="translate(0 0)">
        <ellipse id="Ellipse_75-3" data-name="Ellipse 75" class="cls-1" cx="35.782" cy="35.782" rx="35.782" ry="35.782" transform="translate(4.404 0)"/>
        <rect id="Rechteck_94-3" data-name="Rechteck 94" class="cls-1" width="79.271" height="131.017" rx="7" transform="translate(0 93.584)"/>
        <rect id="Rechteck_95-3" data-name="Rechteck 95" class="cls-1" width="31.929" height="149.734" rx="7" transform="translate(47.342 234.51)"/>
      </g>
    </g>
    <g id="Gruppe_773" data-name="Gruppe 773" transform="translate(801.057 550.718)">
      <rect id="Rechteck_96-4" data-name="Rechteck 96" class="cls-1" width="31.929" height="148.633" rx="6" transform="translate(0 234.51)"/>
      <g id="Gruppe_91-4" data-name="Gruppe 91" transform="translate(0 0)">
        <ellipse id="Ellipse_75-4" data-name="Ellipse 75" class="cls-1" cx="35.782" cy="35.782" rx="35.782" ry="35.782" transform="translate(4.404 0)"/>
        <rect id="Rechteck_94-4" data-name="Rechteck 94" class="cls-1" width="79.271" height="131.017" rx="7" transform="translate(0 93.584)"/>
        <rect id="Rechteck_95-4" data-name="Rechteck 95" class="cls-1" width="31.929" height="149.734" rx="7" transform="translate(47.342 234.51)"/>
      </g>
    </g>
    <g id="Gruppe_774" data-name="Gruppe 774" transform="translate(681.049 550.718)">
      <rect id="Rechteck_96-5" data-name="Rechteck 96" class="cls-1" width="31.929" height="148.633" rx="6" transform="translate(0.001 234.51)"/>
      <g id="Gruppe_91-5" data-name="Gruppe 91" transform="translate(0.001 0)">
        <ellipse id="Ellipse_75-5" data-name="Ellipse 75" class="cls-1" cx="35.782" cy="35.782" rx="35.782" ry="35.782" transform="translate(4.404 0)"/>
        <rect id="Rechteck_94-5" data-name="Rechteck 94" class="cls-1" width="79.271" height="131.017" rx="7" transform="translate(0 93.584)"/>
        <rect id="Rechteck_95-5" data-name="Rechteck 95" class="cls-1" width="31.929" height="149.734" rx="7" transform="translate(47.342 234.51)"/>
      </g>
    </g>
    <text id="_" data-name="?" class="cls-2" transform="translate(872 321)"><tspan x="0" y="534">?</tspan></text>
  </g>
</svg>
