<svg xmlns="http://www.w3.org/2000/svg" width="564.001" height="413.286" viewBox="0 0 564.001 413.286"><g transform="translate(-678 -514.714)"><g transform="translate(1175.877 607.483)"><rect width="26.633" height="123.982" rx="6" transform="translate(0 195.617)" fill="#c2474b"/><g transform="translate(0 0)"><ellipse cx="29.848" cy="29.848" rx="29.848" ry="29.848" transform="translate(3.674 0)" fill="#c2474b"/><rect width="66.124" height="109.288" rx="7" transform="translate(0 78.063)" fill="#c2474b"/><rect width="26.633" height="124.901" rx="7" transform="translate(39.491 195.617)" fill="#c2474b"/></g></g><g transform="translate(885.193 607.483)"><rect width="26.633" height="123.982" rx="6" transform="translate(0 195.617)" fill="#ff8d8d"/><g transform="translate(0 0)"><ellipse cx="29.848" cy="29.848" rx="29.848" ry="29.848" transform="translate(3.674 0)" fill="#ff8d8d"/><rect width="66.124" height="109.288" rx="7" transform="translate(0 78.063)" fill="#ff8d8d"/><rect width="26.633" height="124.901" rx="7" transform="translate(39.491 195.617)" fill="#ff8d8d"/></g></g><g transform="translate(781.877 606.874)"><rect width="26" height="124" rx="6" transform="translate(0 196)" fill="#ffcece"/><g transform="translate(0 0)"><circle cx="30" cy="30" r="30" transform="translate(3)" fill="#ffcece"/><rect width="66" height="109" rx="7" transform="translate(0 78)" fill="#ffcece"/><rect width="27" height="124" rx="7" transform="translate(39 196)" fill="#ffcece"/></g></g><g transform="translate(678 607.483)"><rect width="26.633" height="123.982" rx="6" transform="translate(0 195.617)" fill="#fff"/><g transform="translate(0 0)"><ellipse cx="29.848" cy="29.848" rx="29.848" ry="29.848" transform="translate(3.674 0)" fill="#fff"/><rect width="66.124" height="109.288" rx="7" transform="translate(0 78.063)" fill="#fff"/><rect width="26.633" height="124.901" rx="7" transform="translate(39.491 195.617)" fill="#fff"/></g></g><g transform="translate(989.242 609.404)"><g transform="translate(0 76.31)"><rect width="27" height="124" rx="6" transform="translate(0 118)" fill="#f16166"/><g transform="translate(0 0)"><rect width="67" height="109" rx="7" fill="#f16166"/><rect width="27" height="124" rx="7" transform="translate(40 118)" fill="#f16166"/></g></g><path d="M29.848,0A29.848,29.848,0,1,1,0,29.848,29.848,29.848,0,0,1,29.848,0Z" transform="translate(3.179 0)" fill="#f16166"/></g><text transform="translate(1200.611 514.714)" fill="#fff" font-size="55" font-family="OpenSans-Semibold, Open Sans" font-weight="600"><tspan x="0" y="59">!</tspan></text></g></svg>