<svg xmlns="http://www.w3.org/2000/svg" width="454.788" height="561.007" viewBox="0 0 454.788 561.007">
  <g id="Gruppe_1538" data-name="Gruppe 1538" transform="translate(-109.113 -419.044) rotate(12)">
    <path id="Pfad_84" data-name="Pfad 84" d="M26.738,0H197.405a26.738,26.738,0,0,1,26.738,26.738V412.443c0,14.767-60.205,44.621-116.241,44.621S0,427.21,0,412.443V26.738A26.738,26.738,0,0,1,26.738,0Z" transform="translate(454.236 381.63) rotate(21)" fill="#ece6cf" stroke="#beb8a6" stroke-width="10"/>
    <g id="Gruppe_106" data-name="Gruppe 106" transform="translate(487.406 316.34)">
      <path id="Pfad_57" data-name="Pfad 57" d="M67.341,0c28.718,0,68.546,13.575,68.546,19.378V87.322c0,5.8-30.74,23.537-68.434,23.8S0,93.124,0,87.322V19.378C0,13.575,38.623,0,67.341,0Z" transform="translate(39.822 0) rotate(21)" fill="#c49c57"/>
      <path id="Pfad_83" data-name="Pfad 83" d="M0,0C4.137,21.142,56.26,59.365,109.574,48.334" transform="matrix(0.999, -0.035, 0.035, 0.999, 38.691, 25.273)" fill="none" stroke="#af935a" stroke-linecap="round" stroke-width="5"/>
    </g>
    <path id="Pfad_92" data-name="Pfad 92" d="M228.893,129.148,226.928,364.64c0,17.48-61.217,46.054-117.815,46.054S2.055,382.247,2.055,364.768L2.5,129.148c0-8.6,11.15-23.15,117.685-26.477S228.893,120.268,228.893,129.148Z" transform="translate(435.333 424.234) rotate(21)" fill="#d8c78c"/>
  </g>
</svg>
